{"asset":{"version":"2.0","generator":"utc-boulder"},"scene":0,"scenes":[{"nodes":[0]}],"nodes":[{"name":"boulder","mesh":0}],"meshes":[{"name":"boulder","primitives":[{"attributes":{"POSITION":0,"NORMAL":1},"indices":2,"material":0},{"attributes":{"POSITION":0,"NORMAL":1},"indices":3,"material":1}]}],"materials":[{"name":"rock","pbrMetallicRoughness":{"baseColorFactor":[0.46,0.42,0.36,1],"metallicFactor":0,"roughnessFactor":0.9}},{"name":"lichen","pbrMetallicRoughness":{"baseColorFactor":[0.3,0.38,0.26,1],"metallicFactor":0,"roughnessFactor":0.78}}],"accessors":[{"bufferView":0,"componentType":5126,"count":96,"type":"VEC3","min":[-0.52,0,-0.39],"max":[0.51,0.76,0.39]},{"bufferView":1,"componentType":5126,"count":96,"type":"VEC3"},{"bufferView":2,"componentType":5123,"count":108,"type":"SCALAR"},{"bufferView":2,"byteOffset":216,"componentType":5123,"count":36,"type":"SCALAR"}],"bufferViews":[{"buffer":0,"byteOffset":0,"byteLength":1152,"target":34962},{"buffer":0,"byteOffset":1152,"byteLength":1152,"target":34962},{"buffer":0,"byteOffset":2304,"byteLength":288,"target":34963}],"buffers":[{"byteLength":2592,"uri":"data:application/octet-stream;base64,"}]}