{"asset":{"version":"2.0","generator":"utc-pine"},"scene":0,"scenes":[{"nodes":[0]}],"nodes":[{"name":"pine","mesh":0}],"meshes":[{"name":"pine","primitives":[{"attributes":{"POSITION":0,"NORMAL":1},"indices":2,"material":0},{"attributes":{"POSITION":0,"NORMAL":1},"indices":3,"material":1}]}],"materials":[{"name":"bark","pbrMetallicRoughness":{"baseColorFactor":[0.38,0.24,0.14,1],"metallicFactor":0,"roughnessFactor":0.88}},{"name":"needles","pbrMetallicRoughness":{"baseColorFactor":[0.2,0.4,0.22,1],"metallicFactor":0,"roughnessFactor":0.72}}],"accessors":[{"bufferView":0,"componentType":5126,"count":96,"type":"VEC3","max":[0.575,2.47,0.575],"min":[-0.575,0,-0.575]},{"bufferView":1,"componentType":5126,"count":96,"type":"VEC3"},{"bufferView":2,"componentType":5123,"count":36,"type":"SCALAR"},{"bufferView":2,"byteOffset":72,"componentType":5123,"count":108,"type":"SCALAR"}],"bufferViews":[{"buffer":0,"byteOffset":0,"byteLength":1152,"target":34962},{"buffer":0,"byteOffset":1152,"byteLength":1152,"target":34962},{"buffer":0,"byteOffset":2304,"byteLength":288,"target":34963}],"buffers":[{"byteLength":2592,"uri":"data:application/octet-stream;base64,"}]}