{"asset":{"version":"2.0","generator":"utc-rock"},"scene":0,"scenes":[{"nodes":[0]}],"nodes":[{"name":"rock-slab","mesh":0}],"meshes":[{"name":"rock-slab","primitives":[{"attributes":{"POSITION":0,"NORMAL":1},"indices":2,"material":0},{"attributes":{"POSITION":0,"NORMAL":1},"indices":3,"material":1}]}],"materials":[{"name":"stone","pbrMetallicRoughness":{"baseColorFactor":[0.52,0.44,0.34,1],"metallicFactor":0,"roughnessFactor":0.88}},{"name":"lichen","pbrMetallicRoughness":{"baseColorFactor":[0.34,0.36,0.22,1],"metallicFactor":0,"roughnessFactor":0.76}}],"accessors":[{"bufferView":0,"componentType":5126,"count":642,"type":"VEC3","min":[-7.951876797113531,0,-7.382712661440809],"max":[8.048123202886467,4.479383629762755,7.129475006540643]},{"bufferView":1,"componentType":5126,"count":642,"type":"VEC3"},{"bufferView":2,"componentType":5123,"count":3495,"type":"SCALAR"},{"bufferView":3,"componentType":5123,"count":345,"type":"SCALAR"}],"bufferViews":[{"buffer":0,"byteOffset":0,"byteLength":7704,"target":34962},{"buffer":0,"byteOffset":7704,"byteLength":7704,"target":34962},{"buffer":0,"byteOffset":15408,"byteLength":6990,"target":34963},{"buffer":0,"byteOffset":22398,"byteLength":690,"target":34963}],"buffers":[{"byteLength":23088,"uri":"data:application/octet-stream;base64,"}]}