{"asset":{"version":"2.0","generator":"utc-rock"},"scene":0,"scenes":[{"nodes":[0]}],"nodes":[{"name":"rock-cleft","mesh":0}],"meshes":[{"name":"rock-cleft","primitives":[{"attributes":{"POSITION":0,"NORMAL":1},"indices":2,"material":0},{"attributes":{"POSITION":0,"NORMAL":1},"indices":3,"material":1}]}],"materials":[{"name":"stone","pbrMetallicRoughness":{"baseColorFactor":[0.4,0.38,0.34,1],"metallicFactor":0,"roughnessFactor":0.88}},{"name":"lichen","pbrMetallicRoughness":{"baseColorFactor":[0.26,0.34,0.24,1],"metallicFactor":0,"roughnessFactor":0.76}}],"accessors":[{"bufferView":0,"componentType":5126,"count":642,"type":"VEC3","min":[-8.277998559983317,0,-5.248031102395308],"max":[7.722001440016683,8.733732308710348,5.202861731848904]},{"bufferView":1,"componentType":5126,"count":642,"type":"VEC3"},{"bufferView":2,"componentType":5123,"count":3228,"type":"SCALAR"},{"bufferView":3,"componentType":5123,"count":612,"type":"SCALAR"}],"bufferViews":[{"buffer":0,"byteOffset":0,"byteLength":7704,"target":34962},{"buffer":0,"byteOffset":7704,"byteLength":7704,"target":34962},{"buffer":0,"byteOffset":15408,"byteLength":6456,"target":34963},{"buffer":0,"byteOffset":21864,"byteLength":1224,"target":34963}],"buffers":[{"byteLength":23088,"uri":"data:application/octet-stream;base64,"}]}