{"asset":{"version":"2.0","generator":"Under the Canopy landscape workshop"},"scene":0,"scenes":[{"nodes":[0]}],"nodes":[{"mesh":0}],"meshes":[{"primitives":[{"attributes":{"POSITION":0,"NORMAL":1},"material":0}]}],"materials":[{"name":"Stone","pbrMetallicRoughness":{"baseColorFactor":[0.3967552307153359,0.46778379610254284,0.4396571738310091,1],"metallicFactor":0,"roughnessFactor":0.95}}],"buffers":[{"byteLength":1440,"uri":"data:application/octet-stream;base64,"}],"bufferViews":[{"buffer":0,"byteOffset":0,"byteLength":720},{"buffer":0,"byteOffset":720,"byteLength":720}],"accessors":[{"bufferView":0,"componentType":5126,"count":60,"type":"VEC3","min":[-1.8619511127471924,-0.07999999821186066,-1.0077812671661377],"max":[1.504923701286316,1.8330810070037842,1.1049565076828003]},{"bufferView":1,"componentType":5126,"count":60,"type":"VEC3","min":[-0.7655549645423889,-0.9616291522979736,-0.9944113492965698],"max":[0.7944517135620117,0.9462420344352722,0.9800147414207458]}]}