<svg xmlns="http://www.w3.org/2000/svg" width="128" height="128" viewBox="0 0 128 128"><title>Ancient Heartwood</title><defs><radialGradient id="bg"><stop stop-color="#344138" /><stop offset="1" stop-color="#0c1515" /></radialGradient><linearGradient id="metal" x2=".8" y2="1"><stop stop-color="#fff0c8" /><stop offset=".4" stop-color="#b8a273" /><stop offset="1" stop-color="#5c6250" /></linearGradient></defs><rect x="2" y="2" width="124" height="124" rx="15" fill="url(#bg)" stroke="#7096b5" stroke-width="3" /><circle cx="64" cy="64" r="47" fill="none" stroke="#b8a273" opacity=".16" /><g fill="url(#metal)" stroke="#263026" stroke-width="3" stroke-linejoin="round" stroke-linecap="round"><path d="M35 31h58l-8 73H43z" /><path d="M51 103 58 38m12 63 6-65M37 48l13 16m38-8L77 74" fill="none" stroke="#b8a273" /><path d="m63 72-12-11-9 12 20 21 22-24-9-10z" fill="#e6b98a" /></g><path d="M15 27V15h12m74 0h12v12M15 101v12h12m74 0h12v-12" fill="none" stroke="#7096b5" stroke-width="2" /></svg>