{"asset":{"version":"2.0","generator":"utc-pine"},"scene":0,"scenes":[{"nodes":[0]}],"nodes":[{"name":"pine","mesh":0}],"meshes":[{"name":"pine","primitives":[{"attributes":{"POSITION":0,"NORMAL":1},"indices":2,"material":0},{"attributes":{"POSITION":0,"NORMAL":1},"indices":3,"material":1}]}],"materials":[{"name":"bark","pbrMetallicRoughness":{"baseColorFactor":[0.24,0.14,0.09,1],"metallicFactor":0,"roughnessFactor":0.9}},{"name":"needles","pbrMetallicRoughness":{"baseColorFactor":[0.16,0.15,0.09,1],"metallicFactor":0,"roughnessFactor":0.74}}],"accessors":[{"bufferView":0,"componentType":5126,"count":110,"type":"VEC3","min":[-1.15,0,-1.15],"max":[1.15,3.45,1.15]},{"bufferView":1,"componentType":5126,"count":110,"type":"VEC3"},{"bufferView":2,"componentType":5123,"count":120,"type":"SCALAR"},{"bufferView":3,"componentType":5123,"count":360,"type":"SCALAR"}],"bufferViews":[{"buffer":0,"byteOffset":0,"byteLength":1320,"target":34962},{"buffer":0,"byteOffset":1320,"byteLength":1320,"target":34962},{"buffer":0,"byteOffset":2640,"byteLength":240,"target":34963},{"buffer":0,"byteOffset":2880,"byteLength":720,"target":34963}],"buffers":[{"byteLength":3600,"uri":"data:application/octet-stream;base64,"}]}