{"asset":{"version":"2.0","generator":"utc-import-synty"},"scene":0,"scenes":[{"nodes":[0]}],"nodes":[{"name":"SM_Prop_Cloud_03","mesh":0}],"meshes":[{"name":"SM_Prop_Cloud_03","primitives":[{"attributes":{"POSITION":0,"NORMAL":1,"TEXCOORD_0":2},"indices":3,"material":0}]}],"materials":[{"name":"lambert1","pbrMetallicRoughness":{"baseColorFactor":[0.6038273590529664,0.6038273590529664,0.6038273590529664,1],"metallicFactor":0,"roughnessFactor":0.86},"doubleSided":false}],"accessors":[{"bufferView":0,"componentType":5126,"count":1470,"type":"VEC3","min":[-3.8766908645629883,0,-1.4633376598358154],"max":[4.0199432373046875,1.4939966201782227,1.629385232925415]},{"bufferView":1,"componentType":5126,"count":1470,"type":"VEC3"},{"bufferView":2,"componentType":5126,"count":1470,"type":"VEC2"},{"bufferView":3,"componentType":5123,"count":1470,"type":"SCALAR"}],"bufferViews":[{"buffer":0,"byteOffset":0,"byteLength":17640,"target":34962},{"buffer":0,"byteOffset":17640,"byteLength":17640,"target":34962},{"buffer":0,"byteOffset":35280,"byteLength":11760,"target":34962},{"buffer":0,"byteOffset":47040,"byteLength":2940,"target":34963}],"buffers":[{"byteLength":49980,"uri":"data:application/octet-stream;base64,"}]}