{"asset":{"version":"2.0","generator":"utc-bridge"},"scene":0,"scenes":[{"nodes":[0]}],"nodes":[{"name":"bridge-32","mesh":0}],"meshes":[{"name":"bridge-32","primitives":[{"attributes":{"POSITION":0,"NORMAL":1},"indices":2,"material":0},{"attributes":{"POSITION":0,"NORMAL":1},"indices":3,"material":1}]}],"materials":[{"name":"wood","pbrMetallicRoughness":{"baseColorFactor":[0.42,0.26,0.14,1],"metallicFactor":0,"roughnessFactor":0.82}},{"name":"stone","pbrMetallicRoughness":{"baseColorFactor":[0.46,0.42,0.36,1],"metallicFactor":0,"roughnessFactor":0.9}}],"accessors":[{"bufferView":0,"componentType":5126,"count":1176,"type":"VEC3","min":[-16,-1.05,-2.08],"max":[16,0.41000000000000003,2.08]},{"bufferView":1,"componentType":5126,"count":1176,"type":"VEC3"},{"bufferView":2,"componentType":5123,"count":1692,"type":"SCALAR"},{"bufferView":3,"componentType":5123,"count":72,"type":"SCALAR"}],"bufferViews":[{"buffer":0,"byteOffset":0,"byteLength":14112,"target":34962},{"buffer":0,"byteOffset":14112,"byteLength":14112,"target":34962},{"buffer":0,"byteOffset":28224,"byteLength":3384,"target":34963},{"buffer":0,"byteOffset":31608,"byteLength":144,"target":34963}],"buffers":[{"byteLength":31752,"uri":"data:application/octet-stream;base64,"}]}