{"asset":{"version":"2.0","generator":"utc-rock"},"scene":0,"scenes":[{"nodes":[0]}],"nodes":[{"name":"rock","mesh":0}],"meshes":[{"name":"rock","primitives":[{"attributes":{"POSITION":0,"NORMAL":1},"indices":2,"material":0},{"attributes":{"POSITION":0,"NORMAL":1},"indices":3,"material":1}]}],"materials":[{"name":"stone","pbrMetallicRoughness":{"baseColorFactor":[0.48,0.44,0.38,1],"metallicFactor":0,"roughnessFactor":0.88}},{"name":"lichen","pbrMetallicRoughness":{"baseColorFactor":[0.3,0.38,0.26,1],"metallicFactor":0,"roughnessFactor":0.76}}],"accessors":[{"bufferView":0,"componentType":5126,"count":642,"type":"VEC3","min":[-8.01701042707486,0,-7.305631129149076],"max":[7.982989572925138,10.150729205333493,7.1561923088522486]},{"bufferView":1,"componentType":5126,"count":642,"type":"VEC3"},{"bufferView":2,"componentType":5123,"count":2931,"type":"SCALAR"},{"bufferView":3,"componentType":5123,"count":909,"type":"SCALAR"}],"bufferViews":[{"buffer":0,"byteOffset":0,"byteLength":7704,"target":34962},{"buffer":0,"byteOffset":7704,"byteLength":7704,"target":34962},{"buffer":0,"byteOffset":15408,"byteLength":5862,"target":34963},{"buffer":0,"byteOffset":21270,"byteLength":1818,"target":34963}],"buffers":[{"byteLength":23088,"uri":"data:application/octet-stream;base64,"}]}