{"asset":{"version":"2.0","generator":"Under the Canopy landscape workshop"},"scene":0,"scenes":[{"nodes":[0]}],"nodes":[{"mesh":0}],"meshes":[{"primitives":[{"attributes":{"POSITION":0,"NORMAL":1},"material":0}]}],"materials":[{"name":"Stone","pbrMetallicRoughness":{"baseColorFactor":[0.3864294337766795,0.450785782828426,0.4232676699760063,1],"metallicFactor":0,"roughnessFactor":0.95}}],"buffers":[{"byteLength":1440,"uri":"data:application/octet-stream;base64,"}],"bufferViews":[{"buffer":0,"byteOffset":0,"byteLength":720},{"buffer":0,"byteOffset":720,"byteLength":720}],"accessors":[{"bufferView":0,"componentType":5126,"count":60,"type":"VEC3","min":[-0.9615288972854614,-0.07999999821186066,-0.9637327790260315],"max":[1.1490415334701538,1.447729468345642,0.8868603110313416]},{"bufferView":1,"componentType":5126,"count":60,"type":"VEC3","min":[-0.9647706151008606,-0.9671071767807007,-0.9104170799255371],"max":[0.8983871936798096,0.9671313166618347,0.9587669968605042]}]}