{"asset":{"version":"2.0","generator":"Under the Canopy reference rock study"},"scene":0,"scenes":[{"nodes":[0,1,2]}],"nodes":[{"mesh":0},{"mesh":1},{"mesh":2}],"meshes":[{"primitives":[{"attributes":{"POSITION":0,"NORMAL":1},"material":0}]},{"primitives":[{"attributes":{"POSITION":2,"NORMAL":3},"material":0}]},{"primitives":[{"attributes":{"POSITION":4,"NORMAL":5},"material":0}]}],"materials":[{"pbrMetallicRoughness":{"baseColorFactor":[0.45641102317066595,0.3139887133649649,0.3231432091022285,1],"metallicFactor":0,"roughnessFactor":1}}],"accessors":[{"bufferView":0,"componentType":5126,"count":132,"type":"VEC3","min":[-3.264075994491577,-0.16462315618991852,-2.375370502471924],"max":[0.7645512819290161,4.447203636169434,2.0471150875091553]},{"bufferView":1,"componentType":5126,"count":132,"type":"VEC3","min":[-0.9792206883430481,-0.9897388815879822,-0.9013770222663879],"max":[0.9979106187820435,0.9897390007972717,0.9660785794258118]},{"bufferView":2,"componentType":5126,"count":132,"type":"VEC3","min":[-0.2575206160545349,-0.46971574425697327,-1.6269665956497192],"max":[3.5398337841033936,3.903379201889038,2.0876193046569824]},{"bufferView":3,"componentType":5126,"count":132,"type":"VEC3","min":[-0.9483287334442139,-0.9682073593139648,-0.9931669235229492],"max":[0.8470039367675781,0.9682073593139648,0.9946721196174622]},{"bufferView":4,"componentType":5126,"count":132,"type":"VEC3","min":[-2.9794321060180664,-0.6058551073074341,0.049565549939870834],"max":[1.9403208494186401,3.5178589820861816,3.2881078720092773]},{"bufferView":5,"componentType":5126,"count":132,"type":"VEC3","min":[-0.7545303106307983,-0.9977604150772095,-0.9626349210739136],"max":[0.8681969046592712,0.9977604150772095,0.9941001534461975]}],"bufferViews":[{"buffer":0,"byteOffset":0,"byteLength":1584},{"buffer":0,"byteOffset":1584,"byteLength":1584},{"buffer":0,"byteOffset":3168,"byteLength":1584},{"buffer":0,"byteOffset":4752,"byteLength":1584},{"buffer":0,"byteOffset":6336,"byteLength":1584},{"buffer":0,"byteOffset":7920,"byteLength":1584}],"buffers":[{"byteLength":9504,"uri":"data:application/octet-stream;base64,"}]}