{"asset":{"version":"2.0","generator":"Under the Canopy landscape workshop"},"scene":0,"scenes":[{"nodes":[0]}],"nodes":[{"mesh":0}],"meshes":[{"primitives":[{"attributes":{"POSITION":0,"NORMAL":1},"material":0}]}],"materials":[{"name":"Stone","pbrMetallicRoughness":{"baseColorFactor":[0.46207699964472876,0.4910208498384856,0.4396571738310091,1],"metallicFactor":0,"roughnessFactor":0.95}}],"buffers":[{"byteLength":1440,"uri":"data:application/octet-stream;base64,"}],"bufferViews":[{"buffer":0,"byteOffset":0,"byteLength":720},{"buffer":0,"byteOffset":720,"byteLength":720}],"accessors":[{"bufferView":0,"componentType":5126,"count":60,"type":"VEC3","min":[-1.2026028633117676,-0.07999999821186066,-0.8800697326660156],"max":[1.0396796464920044,1.4717961549758911,0.9343367218971252]},{"bufferView":1,"componentType":5126,"count":60,"type":"VEC3","min":[-0.8148012161254883,-0.953792929649353,-0.970737099647522],"max":[0.9374933838844299,0.9689800143241882,0.9276732802391052]}]}