{"asset":{"version":"2.0","generator":"Under the Canopy landscape workshop"},"scene":0,"scenes":[{"nodes":[0]}],"nodes":[{"mesh":0}],"meshes":[{"primitives":[{"attributes":{"POSITION":0,"NORMAL":1},"material":0}]}],"materials":[{"name":"Stone","pbrMetallicRoughness":{"baseColorFactor":[0.31854677811435356,0.34670405634441115,0.35640014413537763,1],"metallicFactor":0,"roughnessFactor":0.95}}],"buffers":[{"byteLength":1440,"uri":"data:application/octet-stream;base64,"}],"bufferViews":[{"buffer":0,"byteOffset":0,"byteLength":720},{"buffer":0,"byteOffset":720,"byteLength":720}],"accessors":[{"bufferView":0,"componentType":5126,"count":60,"type":"VEC3","min":[-1.534111499786377,-0.07999999821186066,-1.1166232824325562],"max":[1.583301067352295,1.9328186511993408,1.129597783088684]},{"bufferView":1,"componentType":5126,"count":60,"type":"VEC3","min":[-0.8135624527931213,-0.9365900754928589,-0.9744879007339478],"max":[0.8855862617492676,0.9545101523399353,0.9681211113929749]}]}