{"asset":{"version":"2.0","generator":"Under the Canopy landscape workshop"},"scene":0,"scenes":[{"nodes":[0,1,2,3,4,5]}],"nodes":[{"mesh":0},{"mesh":1},{"mesh":2},{"mesh":3},{"mesh":4},{"mesh":5}],"meshes":[{"primitives":[{"attributes":{"POSITION":0,"NORMAL":1},"material":0}]},{"primitives":[{"attributes":{"POSITION":2,"NORMAL":3},"material":1}]},{"primitives":[{"attributes":{"POSITION":4,"NORMAL":5},"material":2}]},{"primitives":[{"attributes":{"POSITION":6,"NORMAL":7},"material":3}]},{"primitives":[{"attributes":{"POSITION":8,"NORMAL":9},"material":4}]},{"primitives":[{"attributes":{"POSITION":10,"NORMAL":11},"material":5}]}],"materials":[{"name":"Stone","pbrMetallicRoughness":{"baseColorFactor":[0.14412847084818123,0.09758734713304495,0.051269458367115384,1],"metallicFactor":0,"roughnessFactor":0.95}},{"name":"Leave","pbrMetallicRoughness":{"baseColorFactor":[0.06301001764564068,0.20507873637973145,0.08437621153575764,1],"metallicFactor":0,"roughnessFactor":0.95}},{"name":"Leave","pbrMetallicRoughness":{"baseColorFactor":[0.06301001764564068,0.20507873637973145,0.08437621153575764,1],"metallicFactor":0,"roughnessFactor":0.95}},{"name":"Leave","pbrMetallicRoughness":{"baseColorFactor":[0.06301001764564068,0.20507873637973145,0.08437621153575764,1],"metallicFactor":0,"roughnessFactor":0.95}},{"name":"Leave","pbrMetallicRoughness":{"baseColorFactor":[0.06301001764564068,0.20507873637973145,0.08437621153575764,1],"metallicFactor":0,"roughnessFactor":0.95}},{"name":"Leave","pbrMetallicRoughness":{"baseColorFactor":[0.06301001764564068,0.20507873637973145,0.08437621153575764,1],"metallicFactor":0,"roughnessFactor":0.95}}],"buffers":[{"byteLength":8496,"uri":"data:application/octet-stream;base64,"}],"bufferViews":[{"buffer":0,"byteOffset":0,"byteLength":1008},{"buffer":0,"byteOffset":1008,"byteLength":1008},{"buffer":0,"byteOffset":2016,"byteLength":648},{"buffer":0,"byteOffset":2664,"byteLength":648},{"buffer":0,"byteOffset":3312,"byteLength":648},{"buffer":0,"byteOffset":3960,"byteLength":648},{"buffer":0,"byteOffset":4608,"byteLength":648},{"buffer":0,"byteOffset":5256,"byteLength":648},{"buffer":0,"byteOffset":5904,"byteLength":648},{"buffer":0,"byteOffset":6552,"byteLength":648},{"buffer":0,"byteOffset":7200,"byteLength":648},{"buffer":0,"byteOffset":7848,"byteLength":648}],"accessors":[{"bufferView":0,"componentType":5126,"count":84,"type":"VEC3","min":[-0.302227646112442,0,-0.27930036187171936],"max":[0.302227646112442,4.5,0.3100000023841858]},{"bufferView":1,"componentType":5126,"count":84,"type":"VEC3","min":[-0.9744885563850403,-1,-0.9995493292808533],"max":[0.9744885563850403,1,0.9005628228187561]},{"bufferView":2,"componentType":5126,"count":54,"type":"VEC3","min":[-2.1316702365875244,1.0499999523162842,-2.014308452606201],"max":[2.299964666366577,3.75,2.3499999046325684]},{"bufferView":3,"componentType":5126,"count":54,"type":"VEC3","min":[-0.7753646969795227,-1,-0.7873259782791138],"max":[0.7753646373748779,0.6165370345115662,0.7398443818092346]},{"bufferView":4,"componentType":5126,"count":54,"type":"VEC3","min":[-1.99657142162323,1.9700000286102295,-1.9126060009002686],"max":[1.8047865629196167,4.670000076293945,1.8310006856918335]},{"bufferView":5,"componentType":5126,"count":54,"type":"VEC3","min":[-0.8175031542778015,-1,-0.830114483833313],"max":[0.8175031542778015,0.557593047618866,0.7800524234771729]},{"bufferView":6,"componentType":5126,"count":54,"type":"VEC3","min":[-1.5443286895751953,2.8899998664855957,-1.4168881177902222],"max":[1.6267523765563965,5.590000152587891,1.706017017364502]},{"bufferView":7,"componentType":5126,"count":54,"type":"VEC3","min":[-0.8591278791427612,-1,-0.872381329536438],"max":[0.8591278791427612,0.4888259768486023,0.8197702765464783]},{"bufferView":8,"componentType":5126,"count":54,"type":"VEC3","min":[-1.2283852100372314,3.809999942779541,-1.3033164739608765],"max":[1.3124186992645264,6.510000228881836,1.1988869905471802]},{"bufferView":9,"componentType":5126,"count":54,"type":"VEC3","min":[-0.8984152674674988,-1,-0.9122747778892517],"max":[0.8984152674674988,0.40957874059677124,0.8572579026222229]},{"bufferView":10,"componentType":5126,"count":54,"type":"VEC3","min":[-1.051403284072876,4.730000019073486,-0.8271164298057556],"max":[0.8591237664222717,7.429999828338623,1.0543854236602783]},{"bufferView":11,"componentType":5126,"count":54,"type":"VEC3","min":[-0.9330713748931885,-1,-0.9474654793739319],"max":[0.9330713748931885,0.31985801458358765,0.8903263211250305]}]}