{"asset":{"version":"2.0","generator":"utc-lily"},"scene":0,"scenes":[{"nodes":[0]}],"nodes":[{"name":"lily","mesh":0}],"meshes":[{"name":"lily","primitives":[{"attributes":{"POSITION":0,"NORMAL":1},"indices":2,"material":0},{"attributes":{"POSITION":0,"NORMAL":1},"indices":3,"material":1},{"attributes":{"POSITION":0,"NORMAL":1},"indices":4,"material":2}]}],"materials":[{"name":"pad","pbrMetallicRoughness":{"baseColorFactor":[0.2,0.46,0.28,1],"metallicFactor":0,"roughnessFactor":0.82}},{"name":"petal","pbrMetallicRoughness":{"baseColorFactor":[0.86,0.36,0.5,1],"metallicFactor":0,"roughnessFactor":0.55}},{"name":"center","pbrMetallicRoughness":{"baseColorFactor":[0.92,0.72,0.18,1],"metallicFactor":0,"roughnessFactor":0.48}}],"accessors":[{"bufferView":0,"componentType":5126,"count":61,"type":"VEC3","min":[-0.46,0.002,-0.44846683960363887],"max":[0.4144456792351128,0.11000000000000001,0.4484668395781543]},{"bufferView":1,"componentType":5126,"count":61,"type":"VEC3"},{"bufferView":2,"componentType":5123,"count":84,"type":"SCALAR"},{"bufferView":3,"componentType":5123,"count":36,"type":"SCALAR"},{"bufferView":4,"componentType":5123,"count":18,"type":"SCALAR"}],"bufferViews":[{"buffer":0,"byteOffset":0,"byteLength":732,"target":34962},{"buffer":0,"byteOffset":732,"byteLength":732,"target":34962},{"buffer":0,"byteOffset":1464,"byteLength":168,"target":34963},{"buffer":0,"byteOffset":1632,"byteLength":72,"target":34963},{"buffer":0,"byteOffset":1704,"byteLength":36,"target":34963}],"buffers":[{"byteLength":1740,"uri":"data:application/octet-stream;base64,"}]}