{"asset":{"version":"2.0","generator":"Under the Canopy landscape workshop"},"scene":0,"scenes":[{"nodes":[0]}],"nodes":[{"mesh":0}],"meshes":[{"primitives":[{"attributes":{"POSITION":0,"NORMAL":1},"material":0}]}],"materials":[{"name":"Stone","pbrMetallicRoughness":{"baseColorFactor":[0.5271151256969157,0.46778379610254284,0.3967552307153359,1],"metallicFactor":0,"roughnessFactor":0.95}}],"buffers":[{"byteLength":1440,"uri":"data:application/octet-stream;base64,"}],"bufferViews":[{"buffer":0,"byteOffset":0,"byteLength":720},{"buffer":0,"byteOffset":720,"byteLength":720}],"accessors":[{"bufferView":0,"componentType":5126,"count":60,"type":"VEC3","min":[-1.4239708185195923,-0.07999999821186066,-0.9355327486991882],"max":[1.7182871103286743,1.5249098539352417,0.8550950288772583]},{"bufferView":1,"componentType":5126,"count":60,"type":"VEC3","min":[-0.7763926982879639,-0.9503331184387207,-0.9875500202178955],"max":[0.70084148645401,0.9535954594612122,0.9990748763084412]}]}