{"asset":{"version":"2.0","generator":"utc-import-synty"},"scene":0,"scenes":[{"nodes":[0]}],"nodes":[{"name":"SM_Tree_Generic_01","mesh":0}],"meshes":[{"name":"SM_Tree_Generic_01","primitives":[{"attributes":{"POSITION":0,"NORMAL":1,"TEXCOORD_0":2,"COLOR_0":3},"indices":4,"material":0},{"attributes":{"POSITION":5,"NORMAL":6,"TEXCOORD_0":7,"COLOR_0":8},"indices":9,"material":1}]}],"materials":[{"name":"Trunk","pbrMetallicRoughness":{"baseColorFactor":[1,1,1,1],"metallicFactor":0,"roughnessFactor":0.86},"doubleSided":false},{"name":"Leave","pbrMetallicRoughness":{"baseColorFactor":[1,1,1,1],"metallicFactor":0,"roughnessFactor":0.86},"doubleSided":true,"alphaMode":"MASK","alphaCutoff":0.4}],"accessors":[{"bufferView":0,"componentType":5126,"count":3924,"type":"VEC3","min":[-1.684722900390625,-0.09075430035591125,-2.1862640380859375],"max":[1.7410202026367188,5.511254787445068,2.0418663024902344]},{"bufferView":1,"componentType":5126,"count":3924,"type":"VEC3"},{"bufferView":2,"componentType":5126,"count":3924,"type":"VEC2"},{"bufferView":3,"componentType":5126,"count":3924,"type":"VEC3"},{"bufferView":4,"componentType":5123,"count":1134,"type":"SCALAR"},{"bufferView":5,"componentType":5126,"count":3924,"type":"VEC3","min":[-1.684722900390625,-0.09075430035591125,-2.1862640380859375],"max":[1.7410202026367188,5.511254787445068,2.0418663024902344]},{"bufferView":6,"componentType":5126,"count":3924,"type":"VEC3"},{"bufferView":7,"componentType":5126,"count":3924,"type":"VEC2"},{"bufferView":8,"componentType":5126,"count":3924,"type":"VEC3"},{"bufferView":9,"componentType":5123,"count":2790,"type":"SCALAR"}],"bufferViews":[{"buffer":0,"byteOffset":0,"byteLength":47088,"target":34962},{"buffer":0,"byteOffset":47088,"byteLength":47088,"target":34962},{"buffer":0,"byteOffset":94176,"byteLength":31392,"target":34962},{"buffer":0,"byteOffset":125568,"byteLength":47088,"target":34962},{"buffer":0,"byteOffset":172656,"byteLength":2268,"target":34963},{"buffer":0,"byteOffset":174924,"byteLength":47088,"target":34962},{"buffer":0,"byteOffset":222012,"byteLength":47088,"target":34962},{"buffer":0,"byteOffset":269100,"byteLength":31392,"target":34962},{"buffer":0,"byteOffset":300492,"byteLength":47088,"target":34962},{"buffer":0,"byteOffset":347580,"byteLength":5580,"target":34963}],"buffers":[{"byteLength":353160,"uri":"data:application/octet-stream;base64,"}]}