{"asset":{"version":"2.0","generator":"utc-import-synty"},"scene":0,"scenes":[{"nodes":[0]}],"nodes":[{"name":"SM_Plant_03","mesh":0}],"meshes":[{"name":"SM_Plant_03","primitives":[{"attributes":{"POSITION":0,"NORMAL":1,"TEXCOORD_0":2,"COLOR_0":3},"indices":4,"material":0}]}],"materials":[{"name":"lambert2","pbrMetallicRoughness":{"baseColorFactor":[1,1,1,1],"metallicFactor":0,"roughnessFactor":0.86},"doubleSided":false}],"accessors":[{"bufferView":0,"componentType":5126,"count":816,"type":"VEC3","min":[-0.2621269226074219,0,-0.20429229736328125],"max":[0.2621269226074219,0.8136444091796875,0.20429229736328125]},{"bufferView":1,"componentType":5126,"count":816,"type":"VEC3"},{"bufferView":2,"componentType":5126,"count":816,"type":"VEC2"},{"bufferView":3,"componentType":5126,"count":816,"type":"VEC3"},{"bufferView":4,"componentType":5123,"count":816,"type":"SCALAR"}],"bufferViews":[{"buffer":0,"byteOffset":0,"byteLength":9792,"target":34962},{"buffer":0,"byteOffset":9792,"byteLength":9792,"target":34962},{"buffer":0,"byteOffset":19584,"byteLength":6528,"target":34962},{"buffer":0,"byteOffset":26112,"byteLength":9792,"target":34962},{"buffer":0,"byteOffset":35904,"byteLength":1632,"target":34963}],"buffers":[{"byteLength":37536,"uri":"data:application/octet-stream;base64,"}]}