{"asset":{"version":"2.0","generator":"utc-import-synty"},"scene":0,"scenes":[{"nodes":[0]}],"nodes":[{"name":"SM_Tree_PolyPine_Sparse_01","mesh":0}],"meshes":[{"name":"SM_Tree_PolyPine_Sparse_01","primitives":[{"attributes":{"POSITION":0,"NORMAL":1,"TEXCOORD_0":2,"COLOR_0":3},"indices":4,"material":0}]}],"materials":[{"name":"lambert2","pbrMetallicRoughness":{"baseColorFactor":[1,1,1,1],"metallicFactor":0,"roughnessFactor":0.86},"doubleSided":false}],"accessors":[{"bufferView":0,"componentType":5126,"count":1677,"type":"VEC3","min":[-0.7765204906463623,-0.1371576488018036,-0.757387101650238],"max":[0.785895824432373,7.795748233795166,0.7449198961257935]},{"bufferView":1,"componentType":5126,"count":1677,"type":"VEC3"},{"bufferView":2,"componentType":5126,"count":1677,"type":"VEC2"},{"bufferView":3,"componentType":5126,"count":1677,"type":"VEC3"},{"bufferView":4,"componentType":5123,"count":1677,"type":"SCALAR"}],"bufferViews":[{"buffer":0,"byteOffset":0,"byteLength":20124,"target":34962},{"buffer":0,"byteOffset":20124,"byteLength":20124,"target":34962},{"buffer":0,"byteOffset":40248,"byteLength":13416,"target":34962},{"buffer":0,"byteOffset":53664,"byteLength":20124,"target":34962},{"buffer":0,"byteOffset":73788,"byteLength":3354,"target":34963}],"buffers":[{"byteLength":77142,"uri":"data:application/octet-stream;base64,"}]}