{"asset":{"version":"2.0","generator":"utc-import-synty"},"scene":0,"scenes":[{"nodes":[0]}],"nodes":[{"name":"SM_Plant_06","mesh":0}],"meshes":[{"name":"SM_Plant_06","primitives":[{"attributes":{"POSITION":0,"NORMAL":1,"TEXCOORD_0":2,"COLOR_0":3},"indices":4,"material":0}]}],"materials":[{"name":"lambert2","pbrMetallicRoughness":{"baseColorFactor":[1,1,1,1],"metallicFactor":0,"roughnessFactor":0.86},"doubleSided":false}],"accessors":[{"bufferView":0,"componentType":5126,"count":2487,"type":"VEC3","min":[-0.5296435356140137,-0.0586668998003006,-0.5057392716407776],"max":[0.5233774781227112,1.030178189277649,0.5677524209022522]},{"bufferView":1,"componentType":5126,"count":2487,"type":"VEC3"},{"bufferView":2,"componentType":5126,"count":2487,"type":"VEC2"},{"bufferView":3,"componentType":5126,"count":2487,"type":"VEC3"},{"bufferView":4,"componentType":5123,"count":2487,"type":"SCALAR"}],"bufferViews":[{"buffer":0,"byteOffset":0,"byteLength":29844,"target":34962},{"buffer":0,"byteOffset":29844,"byteLength":29844,"target":34962},{"buffer":0,"byteOffset":59688,"byteLength":19896,"target":34962},{"buffer":0,"byteOffset":79584,"byteLength":29844,"target":34962},{"buffer":0,"byteOffset":109428,"byteLength":4974,"target":34963}],"buffers":[{"byteLength":114402,"uri":"data:application/octet-stream;base64,"}]}