{"asset":{"version":"2.0","generator":"utc-import-synty"},"scene":0,"scenes":[{"nodes":[0]}],"nodes":[{"name":"SM_Tree_PolyPine_02","mesh":0}],"meshes":[{"name":"SM_Tree_PolyPine_02","primitives":[{"attributes":{"POSITION":0,"NORMAL":1,"TEXCOORD_0":2,"COLOR_0":3},"indices":4,"material":0}]}],"materials":[{"name":"lambert2","pbrMetallicRoughness":{"baseColorFactor":[1,1,1,1],"metallicFactor":0,"roughnessFactor":0.86},"doubleSided":false}],"accessors":[{"bufferView":0,"componentType":5126,"count":828,"type":"VEC3","min":[-0.7589489817619324,-0.09853938966989517,-0.779151439666748],"max":[0.7194299101829529,4.413699150085449,0.7420153617858887]},{"bufferView":1,"componentType":5126,"count":828,"type":"VEC3"},{"bufferView":2,"componentType":5126,"count":828,"type":"VEC2"},{"bufferView":3,"componentType":5126,"count":828,"type":"VEC3"},{"bufferView":4,"componentType":5123,"count":828,"type":"SCALAR"}],"bufferViews":[{"buffer":0,"byteOffset":0,"byteLength":9936,"target":34962},{"buffer":0,"byteOffset":9936,"byteLength":9936,"target":34962},{"buffer":0,"byteOffset":19872,"byteLength":6624,"target":34962},{"buffer":0,"byteOffset":26496,"byteLength":9936,"target":34962},{"buffer":0,"byteOffset":36432,"byteLength":1656,"target":34963}],"buffers":[{"byteLength":38088,"uri":"data:application/octet-stream;base64,"}]}