{"asset":{"version":"2.0","generator":"utc-import-synty"},"scene":0,"scenes":[{"nodes":[0]}],"nodes":[{"name":"SM_Tree_Round_02","mesh":0}],"meshes":[{"name":"SM_Tree_Round_02","primitives":[{"attributes":{"POSITION":0,"NORMAL":1,"TEXCOORD_0":2,"COLOR_0":3},"indices":4,"material":0}]}],"materials":[{"name":"lambert2","pbrMetallicRoughness":{"baseColorFactor":[1,1,1,1],"metallicFactor":0,"roughnessFactor":0.86},"doubleSided":false}],"accessors":[{"bufferView":0,"componentType":5126,"count":1884,"type":"VEC3","min":[-2.1801693439483643,-0.16361631453037262,-1.1030941009521484],"max":[1.6798466444015503,4.567663192749023,1.3533879518508911]},{"bufferView":1,"componentType":5126,"count":1884,"type":"VEC3"},{"bufferView":2,"componentType":5126,"count":1884,"type":"VEC2"},{"bufferView":3,"componentType":5126,"count":1884,"type":"VEC3"},{"bufferView":4,"componentType":5123,"count":1884,"type":"SCALAR"}],"bufferViews":[{"buffer":0,"byteOffset":0,"byteLength":22608,"target":34962},{"buffer":0,"byteOffset":22608,"byteLength":22608,"target":34962},{"buffer":0,"byteOffset":45216,"byteLength":15072,"target":34962},{"buffer":0,"byteOffset":60288,"byteLength":22608,"target":34962},{"buffer":0,"byteOffset":82896,"byteLength":3768,"target":34963}],"buffers":[{"byteLength":86664,"uri":"data:application/octet-stream;base64,"}]}