{"asset":{"version":"2.0","generator":"utc-import-synty"},"scene":0,"scenes":[{"nodes":[0]}],"nodes":[{"name":"SM_Prop_Cloud_01","mesh":0}],"meshes":[{"name":"SM_Prop_Cloud_01","primitives":[{"attributes":{"POSITION":0,"NORMAL":1,"TEXCOORD_0":2},"indices":3,"material":0}]}],"materials":[{"name":"lambert1","pbrMetallicRoughness":{"baseColorFactor":[0.6038273590529664,0.6038273590529664,0.6038273590529664,1],"metallicFactor":0,"roughnessFactor":0.86},"doubleSided":false}],"accessors":[{"bufferView":0,"componentType":5126,"count":840,"type":"VEC3","min":[-3.70243501663208,0,-0.5082767009735107],"max":[3.737699270248413,1.243190884590149,1.3781274557113647]},{"bufferView":1,"componentType":5126,"count":840,"type":"VEC3"},{"bufferView":2,"componentType":5126,"count":840,"type":"VEC2"},{"bufferView":3,"componentType":5123,"count":840,"type":"SCALAR"}],"bufferViews":[{"buffer":0,"byteOffset":0,"byteLength":10080,"target":34962},{"buffer":0,"byteOffset":10080,"byteLength":10080,"target":34962},{"buffer":0,"byteOffset":20160,"byteLength":6720,"target":34962},{"buffer":0,"byteOffset":26880,"byteLength":1680,"target":34963}],"buffers":[{"byteLength":28560,"uri":"data:application/octet-stream;base64,"}]}