{"asset":{"version":"2.0","generator":"utc-import-synty"},"scene":0,"scenes":[{"nodes":[0]}],"nodes":[{"name":"SM_Plant_Bush_01","mesh":0}],"meshes":[{"name":"SM_Plant_Bush_01","primitives":[{"attributes":{"POSITION":0,"NORMAL":1,"TEXCOORD_0":2,"COLOR_0":3},"indices":4,"material":0}]}],"materials":[{"name":"lambert2","pbrMetallicRoughness":{"baseColorFactor":[1,1,1,1],"metallicFactor":0,"roughnessFactor":0.86},"doubleSided":false}],"accessors":[{"bufferView":0,"componentType":5126,"count":600,"type":"VEC3","min":[-0.8074798583984375,1.9073468138230965e-8,-0.70733642578125],"max":[0.8074798583984375,2.0405120849609375,0.70733642578125]},{"bufferView":1,"componentType":5126,"count":600,"type":"VEC3"},{"bufferView":2,"componentType":5126,"count":600,"type":"VEC2"},{"bufferView":3,"componentType":5126,"count":600,"type":"VEC3"},{"bufferView":4,"componentType":5123,"count":600,"type":"SCALAR"}],"bufferViews":[{"buffer":0,"byteOffset":0,"byteLength":7200,"target":34962},{"buffer":0,"byteOffset":7200,"byteLength":7200,"target":34962},{"buffer":0,"byteOffset":14400,"byteLength":4800,"target":34962},{"buffer":0,"byteOffset":19200,"byteLength":7200,"target":34962},{"buffer":0,"byteOffset":26400,"byteLength":1200,"target":34963}],"buffers":[{"byteLength":27600,"uri":"data:application/octet-stream;base64,"}]}