{"asset":{"version":"2.0","generator":"utc-import-synty"},"scene":0,"scenes":[{"nodes":[0]}],"nodes":[{"name":"SM_Tree_PolyPine_Sparse_03","mesh":0}],"meshes":[{"name":"SM_Tree_PolyPine_Sparse_03","primitives":[{"attributes":{"POSITION":0,"NORMAL":1,"TEXCOORD_0":2,"COLOR_0":3},"indices":4,"material":0}]}],"materials":[{"name":"lambert2","pbrMetallicRoughness":{"baseColorFactor":[1,1,1,1],"metallicFactor":0,"roughnessFactor":0.86},"doubleSided":false}],"accessors":[{"bufferView":0,"componentType":5126,"count":864,"type":"VEC3","min":[-0.5963897705078125,-0.1220712661743164,-0.6180419921875],"max":[0.5923080444335938,3.9642333984375,0.6383132934570312]},{"bufferView":1,"componentType":5126,"count":864,"type":"VEC3"},{"bufferView":2,"componentType":5126,"count":864,"type":"VEC2"},{"bufferView":3,"componentType":5126,"count":864,"type":"VEC3"},{"bufferView":4,"componentType":5123,"count":864,"type":"SCALAR"}],"bufferViews":[{"buffer":0,"byteOffset":0,"byteLength":10368,"target":34962},{"buffer":0,"byteOffset":10368,"byteLength":10368,"target":34962},{"buffer":0,"byteOffset":20736,"byteLength":6912,"target":34962},{"buffer":0,"byteOffset":27648,"byteLength":10368,"target":34962},{"buffer":0,"byteOffset":38016,"byteLength":1728,"target":34963}],"buffers":[{"byteLength":39744,"uri":"data:application/octet-stream;base64,"}]}