{"asset":{"version":"2.0","generator":"utc-import-synty"},"scene":0,"scenes":[{"nodes":[0]}],"nodes":[{"name":"SM_Tree_01","mesh":0}],"meshes":[{"name":"SM_Tree_01","primitives":[{"attributes":{"POSITION":0,"NORMAL":1,"TEXCOORD_0":2,"COLOR_0":3},"indices":4,"material":0}]}],"materials":[{"name":"lambert2","pbrMetallicRoughness":{"baseColorFactor":[1,1,1,1],"metallicFactor":0,"roughnessFactor":0.86},"doubleSided":false}],"accessors":[{"bufferView":0,"componentType":5126,"count":798,"type":"VEC3","min":[-1.5909423828125,0,-1.4156494140625],"max":[1.5909423828125,6.21417236328125,1.4156494140625]},{"bufferView":1,"componentType":5126,"count":798,"type":"VEC3"},{"bufferView":2,"componentType":5126,"count":798,"type":"VEC2"},{"bufferView":3,"componentType":5126,"count":798,"type":"VEC3"},{"bufferView":4,"componentType":5123,"count":798,"type":"SCALAR"}],"bufferViews":[{"buffer":0,"byteOffset":0,"byteLength":9576,"target":34962},{"buffer":0,"byteOffset":9576,"byteLength":9576,"target":34962},{"buffer":0,"byteOffset":19152,"byteLength":6384,"target":34962},{"buffer":0,"byteOffset":25536,"byteLength":9576,"target":34962},{"buffer":0,"byteOffset":35112,"byteLength":1596,"target":34963}],"buffers":[{"byteLength":36708,"uri":"data:application/octet-stream;base64,"}]}