{"asset":{"version":"2.0","generator":"utc-import-synty"},"scene":0,"scenes":[{"nodes":[0]}],"nodes":[{"name":"SM_Tree_PolyPine_03","mesh":0}],"meshes":[{"name":"SM_Tree_PolyPine_03","primitives":[{"attributes":{"POSITION":0,"NORMAL":1,"TEXCOORD_0":2,"COLOR_0":3},"indices":4,"material":0}]}],"materials":[{"name":"lambert2","pbrMetallicRoughness":{"baseColorFactor":[1,1,1,1],"metallicFactor":0,"roughnessFactor":0.86},"doubleSided":false}],"accessors":[{"bufferView":0,"componentType":5126,"count":570,"type":"VEC3","min":[-0.6055068969726562,-0.09853935241699219,-0.55450439453125],"max":[0.5271377563476562,3.08892822265625,0.5435981750488281]},{"bufferView":1,"componentType":5126,"count":570,"type":"VEC3"},{"bufferView":2,"componentType":5126,"count":570,"type":"VEC2"},{"bufferView":3,"componentType":5126,"count":570,"type":"VEC3"},{"bufferView":4,"componentType":5123,"count":570,"type":"SCALAR"}],"bufferViews":[{"buffer":0,"byteOffset":0,"byteLength":6840,"target":34962},{"buffer":0,"byteOffset":6840,"byteLength":6840,"target":34962},{"buffer":0,"byteOffset":13680,"byteLength":4560,"target":34962},{"buffer":0,"byteOffset":18240,"byteLength":6840,"target":34962},{"buffer":0,"byteOffset":25080,"byteLength":1140,"target":34963}],"buffers":[{"byteLength":26220,"uri":"data:application/octet-stream;base64,"}]}