{"asset":{"version":"2.0","generator":"utc-import-synty"},"scene":0,"scenes":[{"nodes":[0]}],"nodes":[{"name":"SM_Plant_07","mesh":0}],"meshes":[{"name":"SM_Plant_07","primitives":[{"attributes":{"POSITION":0,"NORMAL":1,"TEXCOORD_0":2,"COLOR_0":3},"indices":4,"material":0}]}],"materials":[{"name":"lambert2","pbrMetallicRoughness":{"baseColorFactor":[1,1,1,1],"metallicFactor":0,"roughnessFactor":0.86},"doubleSided":false}],"accessors":[{"bufferView":0,"componentType":5126,"count":1566,"type":"VEC3","min":[-0.4949836730957031,0,-0.4824676513671875],"max":[0.4949836730957031,0.7703475952148438,0.4824676513671875]},{"bufferView":1,"componentType":5126,"count":1566,"type":"VEC3"},{"bufferView":2,"componentType":5126,"count":1566,"type":"VEC2"},{"bufferView":3,"componentType":5126,"count":1566,"type":"VEC3"},{"bufferView":4,"componentType":5123,"count":1566,"type":"SCALAR"}],"bufferViews":[{"buffer":0,"byteOffset":0,"byteLength":18792,"target":34962},{"buffer":0,"byteOffset":18792,"byteLength":18792,"target":34962},{"buffer":0,"byteOffset":37584,"byteLength":12528,"target":34962},{"buffer":0,"byteOffset":50112,"byteLength":18792,"target":34962},{"buffer":0,"byteOffset":68904,"byteLength":3132,"target":34963}],"buffers":[{"byteLength":72036,"uri":"data:application/octet-stream;base64,"}]}