{"asset":{"version":"2.0","generator":"utc-import-synty"},"scene":0,"scenes":[{"nodes":[0]}],"nodes":[{"name":"SM_Tree_Round_01","mesh":0}],"meshes":[{"name":"SM_Tree_Round_01","primitives":[{"attributes":{"POSITION":0,"NORMAL":1,"TEXCOORD_0":2,"COLOR_0":3},"indices":4,"material":0}]}],"materials":[{"name":"lambert2","pbrMetallicRoughness":{"baseColorFactor":[1,1,1,1],"metallicFactor":0,"roughnessFactor":0.86},"doubleSided":false}],"accessors":[{"bufferView":0,"componentType":5126,"count":1542,"type":"VEC3","min":[-1.4547390937805176,-0.14039762318134308,-1.09014892578125],"max":[1.4668338298797607,3.61893367767334,1.1521244049072266]},{"bufferView":1,"componentType":5126,"count":1542,"type":"VEC3"},{"bufferView":2,"componentType":5126,"count":1542,"type":"VEC2"},{"bufferView":3,"componentType":5126,"count":1542,"type":"VEC3"},{"bufferView":4,"componentType":5123,"count":1542,"type":"SCALAR"}],"bufferViews":[{"buffer":0,"byteOffset":0,"byteLength":18504,"target":34962},{"buffer":0,"byteOffset":18504,"byteLength":18504,"target":34962},{"buffer":0,"byteOffset":37008,"byteLength":12336,"target":34962},{"buffer":0,"byteOffset":49344,"byteLength":18504,"target":34962},{"buffer":0,"byteOffset":67848,"byteLength":3084,"target":34963}],"buffers":[{"byteLength":70932,"uri":"data:application/octet-stream;base64,"}]}