{"asset":{"version":"2.0","generator":"utc-import-synty"},"scene":0,"scenes":[{"nodes":[0]}],"nodes":[{"name":"SM_Plant_05","mesh":0}],"meshes":[{"name":"SM_Plant_05","primitives":[{"attributes":{"POSITION":0,"NORMAL":1,"TEXCOORD_0":2,"COLOR_0":3},"indices":4,"material":0}]}],"materials":[{"name":"lambert2","pbrMetallicRoughness":{"baseColorFactor":[1,1,1,1],"metallicFactor":0,"roughnessFactor":0.86},"doubleSided":false}],"accessors":[{"bufferView":0,"componentType":5126,"count":1152,"type":"VEC3","min":[-0.4145592749118805,0,-0.4303463399410248],"max":[0.41455939412117004,3.0208401679992676,0.43034571409225464]},{"bufferView":1,"componentType":5126,"count":1152,"type":"VEC3"},{"bufferView":2,"componentType":5126,"count":1152,"type":"VEC2"},{"bufferView":3,"componentType":5126,"count":1152,"type":"VEC3"},{"bufferView":4,"componentType":5123,"count":1152,"type":"SCALAR"}],"bufferViews":[{"buffer":0,"byteOffset":0,"byteLength":13824,"target":34962},{"buffer":0,"byteOffset":13824,"byteLength":13824,"target":34962},{"buffer":0,"byteOffset":27648,"byteLength":9216,"target":34962},{"buffer":0,"byteOffset":36864,"byteLength":13824,"target":34962},{"buffer":0,"byteOffset":50688,"byteLength":2304,"target":34963}],"buffers":[{"byteLength":52992,"uri":"data:application/octet-stream;base64,"}]}