{"asset":{"version":"2.0","generator":"utc-import-synty"},"scene":0,"scenes":[{"nodes":[0]}],"nodes":[{"name":"SM_Plant_04","mesh":0}],"meshes":[{"name":"SM_Plant_04","primitives":[{"attributes":{"POSITION":0,"NORMAL":1,"TEXCOORD_0":2,"COLOR_0":3},"indices":4,"material":0}]}],"materials":[{"name":"lambert2","pbrMetallicRoughness":{"baseColorFactor":[1,1,1,1],"metallicFactor":0,"roughnessFactor":0.86},"doubleSided":false}],"accessors":[{"bufferView":0,"componentType":5126,"count":720,"type":"VEC3","min":[-0.3658485412597656,-0.06739473342895508,-0.394073486328125],"max":[0.3415374755859375,0.31969261169433594,0.2954292297363281]},{"bufferView":1,"componentType":5126,"count":720,"type":"VEC3"},{"bufferView":2,"componentType":5126,"count":720,"type":"VEC2"},{"bufferView":3,"componentType":5126,"count":720,"type":"VEC3"},{"bufferView":4,"componentType":5123,"count":720,"type":"SCALAR"}],"bufferViews":[{"buffer":0,"byteOffset":0,"byteLength":8640,"target":34962},{"buffer":0,"byteOffset":8640,"byteLength":8640,"target":34962},{"buffer":0,"byteOffset":17280,"byteLength":5760,"target":34962},{"buffer":0,"byteOffset":23040,"byteLength":8640,"target":34962},{"buffer":0,"byteOffset":31680,"byteLength":1440,"target":34963}],"buffers":[{"byteLength":33120,"uri":"data:application/octet-stream;base64,"}]}