{"asset":{"version":"2.0","generator":"utc-import-synty"},"scene":0,"scenes":[{"nodes":[0]}],"nodes":[{"name":"SM_Tree_PolyPine_Sparse_02","mesh":0}],"meshes":[{"name":"SM_Tree_PolyPine_Sparse_02","primitives":[{"attributes":{"POSITION":0,"NORMAL":1,"TEXCOORD_0":2,"COLOR_0":3},"indices":4,"material":0}]}],"materials":[{"name":"lambert2","pbrMetallicRoughness":{"baseColorFactor":[1,1,1,1],"metallicFactor":0,"roughnessFactor":0.86},"doubleSided":false}],"accessors":[{"bufferView":0,"componentType":5126,"count":1338,"type":"VEC3","min":[-0.7192459106445312,-0.13213634490966797,-0.6128730773925781],"max":[0.7569808959960938,5.64508056640625,0.7176361083984375]},{"bufferView":1,"componentType":5126,"count":1338,"type":"VEC3"},{"bufferView":2,"componentType":5126,"count":1338,"type":"VEC2"},{"bufferView":3,"componentType":5126,"count":1338,"type":"VEC3"},{"bufferView":4,"componentType":5123,"count":1338,"type":"SCALAR"}],"bufferViews":[{"buffer":0,"byteOffset":0,"byteLength":16056,"target":34962},{"buffer":0,"byteOffset":16056,"byteLength":16056,"target":34962},{"buffer":0,"byteOffset":32112,"byteLength":10704,"target":34962},{"buffer":0,"byteOffset":42816,"byteLength":16056,"target":34962},{"buffer":0,"byteOffset":58872,"byteLength":2676,"target":34963}],"buffers":[{"byteLength":61548,"uri":"data:application/octet-stream;base64,"}]}