{"asset":{"version":"2.0","generator":"utc-import-synty"},"scene":0,"scenes":[{"nodes":[0]}],"nodes":[{"name":"SM_Plant_Bush_02","mesh":0}],"meshes":[{"name":"SM_Plant_Bush_02","primitives":[{"attributes":{"POSITION":0,"NORMAL":1,"TEXCOORD_0":2,"COLOR_0":3},"indices":4,"material":0}]}],"materials":[{"name":"lambert2","pbrMetallicRoughness":{"baseColorFactor":[1,1,1,1],"metallicFactor":0,"roughnessFactor":0.86},"doubleSided":false}],"accessors":[{"bufferView":0,"componentType":5126,"count":846,"type":"VEC3","min":[-1.0520830154418945,-0.3013051748275757,-0.7024486064910889],"max":[1.0397634506225586,1.702115774154663,1.0868864059448242]},{"bufferView":1,"componentType":5126,"count":846,"type":"VEC3"},{"bufferView":2,"componentType":5126,"count":846,"type":"VEC2"},{"bufferView":3,"componentType":5126,"count":846,"type":"VEC3"},{"bufferView":4,"componentType":5123,"count":846,"type":"SCALAR"}],"bufferViews":[{"buffer":0,"byteOffset":0,"byteLength":10152,"target":34962},{"buffer":0,"byteOffset":10152,"byteLength":10152,"target":34962},{"buffer":0,"byteOffset":20304,"byteLength":6768,"target":34962},{"buffer":0,"byteOffset":27072,"byteLength":10152,"target":34962},{"buffer":0,"byteOffset":37224,"byteLength":1692,"target":34963}],"buffers":[{"byteLength":38916,"uri":"data:application/octet-stream;base64,"}]}