{"asset":{"version":"2.0","generator":"utc-import-synty"},"scene":0,"scenes":[{"nodes":[0]}],"nodes":[{"name":"SM_Tree_Dead_03","mesh":0}],"meshes":[{"name":"SM_Tree_Dead_03","primitives":[{"attributes":{"POSITION":0,"NORMAL":1,"TEXCOORD_0":2,"COLOR_0":3},"indices":4,"material":0},{"attributes":{"POSITION":5,"NORMAL":6,"TEXCOORD_0":7,"COLOR_0":8},"indices":9,"material":1}]}],"materials":[{"name":"Trunk","pbrMetallicRoughness":{"baseColorFactor":[1,1,1,1],"metallicFactor":0,"roughnessFactor":0.86},"doubleSided":false},{"name":"Leaves_Dead","pbrMetallicRoughness":{"baseColorFactor":[1,1,1,1],"metallicFactor":0,"roughnessFactor":0.86},"doubleSided":true,"alphaMode":"MASK","alphaCutoff":0.4}],"accessors":[{"bufferView":0,"componentType":5126,"count":396,"type":"VEC3","min":[-0.4596405029296875,0,-0.31655406951904297],"max":[0.5307540893554688,1.2314574718475342,0.4065408706665039]},{"bufferView":1,"componentType":5126,"count":396,"type":"VEC3"},{"bufferView":2,"componentType":5126,"count":396,"type":"VEC2"},{"bufferView":3,"componentType":5126,"count":396,"type":"VEC3"},{"bufferView":4,"componentType":5123,"count":270,"type":"SCALAR"},{"bufferView":5,"componentType":5126,"count":396,"type":"VEC3","min":[-0.4596405029296875,0,-0.31655406951904297],"max":[0.5307540893554688,1.2314574718475342,0.4065408706665039]},{"bufferView":6,"componentType":5126,"count":396,"type":"VEC3"},{"bufferView":7,"componentType":5126,"count":396,"type":"VEC2"},{"bufferView":8,"componentType":5126,"count":396,"type":"VEC3"},{"bufferView":9,"componentType":5123,"count":126,"type":"SCALAR"}],"bufferViews":[{"buffer":0,"byteOffset":0,"byteLength":4752,"target":34962},{"buffer":0,"byteOffset":4752,"byteLength":4752,"target":34962},{"buffer":0,"byteOffset":9504,"byteLength":3168,"target":34962},{"buffer":0,"byteOffset":12672,"byteLength":4752,"target":34962},{"buffer":0,"byteOffset":17424,"byteLength":540,"target":34963},{"buffer":0,"byteOffset":17964,"byteLength":4752,"target":34962},{"buffer":0,"byteOffset":22716,"byteLength":4752,"target":34962},{"buffer":0,"byteOffset":27468,"byteLength":3168,"target":34962},{"buffer":0,"byteOffset":30636,"byteLength":4752,"target":34962},{"buffer":0,"byteOffset":35388,"byteLength":252,"target":34963}],"buffers":[{"byteLength":35640,"uri":"data:application/octet-stream;base64,"}]}