{"asset":{"version":"2.0","generator":"utc-import-synty"},"scene":0,"scenes":[{"nodes":[0]}],"nodes":[{"name":"SM_Plant_Bush_Leaves_03","mesh":0}],"meshes":[{"name":"SM_Plant_Bush_Leaves_03","primitives":[{"attributes":{"POSITION":0,"NORMAL":1,"TEXCOORD_0":2,"COLOR_0":3},"indices":4,"material":0}]}],"materials":[{"name":"Tree2","pbrMetallicRoughness":{"baseColorFactor":[1,1,1,1],"metallicFactor":0,"roughnessFactor":0.86},"doubleSided":false}],"accessors":[{"bufferView":0,"componentType":5126,"count":360,"type":"VEC3","min":[-0.8425521850585938,-0.10570073127746582,-0.9679450988769531],"max":[0.7787704467773438,1.417388916015625,0.7739554047584534]},{"bufferView":1,"componentType":5126,"count":360,"type":"VEC3"},{"bufferView":2,"componentType":5126,"count":360,"type":"VEC2"},{"bufferView":3,"componentType":5126,"count":360,"type":"VEC3"},{"bufferView":4,"componentType":5123,"count":360,"type":"SCALAR"}],"bufferViews":[{"buffer":0,"byteOffset":0,"byteLength":4320,"target":34962},{"buffer":0,"byteOffset":4320,"byteLength":4320,"target":34962},{"buffer":0,"byteOffset":8640,"byteLength":2880,"target":34962},{"buffer":0,"byteOffset":11520,"byteLength":4320,"target":34962},{"buffer":0,"byteOffset":15840,"byteLength":720,"target":34963}],"buffers":[{"byteLength":16560,"uri":"data:application/octet-stream;base64,"}]}