{"asset":{"version":"2.0","generator":"utc-import-synty"},"scene":0,"scenes":[{"nodes":[0]}],"nodes":[{"name":"SM_Prop_Cloud_02","mesh":0}],"meshes":[{"name":"SM_Prop_Cloud_02","primitives":[{"attributes":{"POSITION":0,"NORMAL":1,"TEXCOORD_0":2},"indices":3,"material":0}]}],"materials":[{"name":"lambert1","pbrMetallicRoughness":{"baseColorFactor":[0.6038273590529664,0.6038273590529664,0.6038273590529664,1],"metallicFactor":0,"roughnessFactor":0.86},"doubleSided":false}],"accessors":[{"bufferView":0,"componentType":5126,"count":756,"type":"VEC3","min":[-4.175111770629883,0,-0.9589565396308899],"max":[4.13966703414917,1.2838072776794434,1.6184947490692139]},{"bufferView":1,"componentType":5126,"count":756,"type":"VEC3"},{"bufferView":2,"componentType":5126,"count":756,"type":"VEC2"},{"bufferView":3,"componentType":5123,"count":756,"type":"SCALAR"}],"bufferViews":[{"buffer":0,"byteOffset":0,"byteLength":9072,"target":34962},{"buffer":0,"byteOffset":9072,"byteLength":9072,"target":34962},{"buffer":0,"byteOffset":18144,"byteLength":6048,"target":34962},{"buffer":0,"byteOffset":24192,"byteLength":1512,"target":34963}],"buffers":[{"byteLength":25704,"uri":"data:application/octet-stream;base64,"}]}