{"asset":{"version":"2.0","generator":"utc-import-synty"},"scene":0,"scenes":[{"nodes":[0]}],"nodes":[{"name":"SM_Tree_Birch_03","mesh":0}],"meshes":[{"name":"SM_Tree_Birch_03","primitives":[{"attributes":{"POSITION":0,"NORMAL":1,"TEXCOORD_0":2,"COLOR_0":3},"indices":4,"material":0},{"attributes":{"POSITION":5,"NORMAL":6,"TEXCOORD_0":7,"COLOR_0":8},"indices":9,"material":1}]}],"materials":[{"name":"Trunk","pbrMetallicRoughness":{"baseColorFactor":[1,1,1,1],"metallicFactor":0,"roughnessFactor":0.86},"doubleSided":false},{"name":"Leave","pbrMetallicRoughness":{"baseColorFactor":[1,1,1,1],"metallicFactor":0,"roughnessFactor":0.86},"doubleSided":true,"alphaMode":"MASK","alphaCutoff":0.4}],"accessors":[{"bufferView":0,"componentType":5126,"count":1998,"type":"VEC3","min":[-1.0520631074905396,0.008896426297724247,-1.0448241233825684],"max":[1.0882339477539062,5.408362865447998,1.0611090660095215]},{"bufferView":1,"componentType":5126,"count":1998,"type":"VEC3"},{"bufferView":2,"componentType":5126,"count":1998,"type":"VEC2"},{"bufferView":3,"componentType":5126,"count":1998,"type":"VEC3"},{"bufferView":4,"componentType":5123,"count":288,"type":"SCALAR"},{"bufferView":5,"componentType":5126,"count":1998,"type":"VEC3","min":[-1.0520631074905396,0.008896426297724247,-1.0448241233825684],"max":[1.0882339477539062,5.408362865447998,1.0611090660095215]},{"bufferView":6,"componentType":5126,"count":1998,"type":"VEC3"},{"bufferView":7,"componentType":5126,"count":1998,"type":"VEC2"},{"bufferView":8,"componentType":5126,"count":1998,"type":"VEC3"},{"bufferView":9,"componentType":5123,"count":1710,"type":"SCALAR"}],"bufferViews":[{"buffer":0,"byteOffset":0,"byteLength":23976,"target":34962},{"buffer":0,"byteOffset":23976,"byteLength":23976,"target":34962},{"buffer":0,"byteOffset":47952,"byteLength":15984,"target":34962},{"buffer":0,"byteOffset":63936,"byteLength":23976,"target":34962},{"buffer":0,"byteOffset":87912,"byteLength":576,"target":34963},{"buffer":0,"byteOffset":88488,"byteLength":23976,"target":34962},{"buffer":0,"byteOffset":112464,"byteLength":23976,"target":34962},{"buffer":0,"byteOffset":136440,"byteLength":15984,"target":34962},{"buffer":0,"byteOffset":152424,"byteLength":23976,"target":34962},{"buffer":0,"byteOffset":176400,"byteLength":3420,"target":34963}],"buffers":[{"byteLength":179820,"uri":"data:application/octet-stream;base64,"}]}