{"asset":{"version":"2.0","generator":"utc-import-synty"},"scene":0,"scenes":[{"nodes":[0]}],"nodes":[{"name":"SM_Tree_Willow_Small_01","mesh":0}],"meshes":[{"name":"SM_Tree_Willow_Small_01","primitives":[{"attributes":{"POSITION":0,"NORMAL":1,"TEXCOORD_0":2,"COLOR_0":3},"indices":4,"material":0},{"attributes":{"POSITION":5,"NORMAL":6,"TEXCOORD_0":7,"COLOR_0":8},"indices":9,"material":1}]}],"materials":[{"name":"Trunk","pbrMetallicRoughness":{"baseColorFactor":[1,1,1,1],"metallicFactor":0,"roughnessFactor":0.86},"doubleSided":false},{"name":"Leave","pbrMetallicRoughness":{"baseColorFactor":[1,1,1,1],"metallicFactor":0,"roughnessFactor":0.86},"doubleSided":true,"alphaMode":"MASK","alphaCutoff":0.4}],"accessors":[{"bufferView":0,"componentType":5126,"count":576,"type":"VEC3","min":[-0.9111195206642151,-0.22483505308628082,-1.2006199359893799],"max":[1.2070097923278809,4.675500869750977,1.080667495727539]},{"bufferView":1,"componentType":5126,"count":576,"type":"VEC3"},{"bufferView":2,"componentType":5126,"count":576,"type":"VEC2"},{"bufferView":3,"componentType":5126,"count":576,"type":"VEC3"},{"bufferView":4,"componentType":5123,"count":288,"type":"SCALAR"},{"bufferView":5,"componentType":5126,"count":576,"type":"VEC3","min":[-0.9111195206642151,-0.22483505308628082,-1.2006199359893799],"max":[1.2070097923278809,4.675500869750977,1.080667495727539]},{"bufferView":6,"componentType":5126,"count":576,"type":"VEC3"},{"bufferView":7,"componentType":5126,"count":576,"type":"VEC2"},{"bufferView":8,"componentType":5126,"count":576,"type":"VEC3"},{"bufferView":9,"componentType":5123,"count":288,"type":"SCALAR"}],"bufferViews":[{"buffer":0,"byteOffset":0,"byteLength":6912,"target":34962},{"buffer":0,"byteOffset":6912,"byteLength":6912,"target":34962},{"buffer":0,"byteOffset":13824,"byteLength":4608,"target":34962},{"buffer":0,"byteOffset":18432,"byteLength":6912,"target":34962},{"buffer":0,"byteOffset":25344,"byteLength":576,"target":34963},{"buffer":0,"byteOffset":25920,"byteLength":6912,"target":34962},{"buffer":0,"byteOffset":32832,"byteLength":6912,"target":34962},{"buffer":0,"byteOffset":39744,"byteLength":4608,"target":34962},{"buffer":0,"byteOffset":44352,"byteLength":6912,"target":34962},{"buffer":0,"byteOffset":51264,"byteLength":576,"target":34963}],"buffers":[{"byteLength":51840,"uri":"data:application/octet-stream;base64,"}]}