{"asset":{"version":"2.0","generator":"utc-import-synty"},"scene":0,"scenes":[{"nodes":[0]}],"nodes":[{"name":"SM_Prop_Skull_01","mesh":0}],"meshes":[{"name":"SM_Prop_Skull_01","primitives":[{"attributes":{"POSITION":0,"NORMAL":1,"TEXCOORD_0":2,"COLOR_0":3},"indices":4,"material":0}]}],"materials":[{"name":"lambert2","pbrMetallicRoughness":{"baseColorFactor":[1,1,1,1],"metallicFactor":0,"roughnessFactor":0.86},"doubleSided":false}],"accessors":[{"bufferView":0,"componentType":5126,"count":564,"type":"VEC3","min":[-0.11655521392822266,-0.12530994415283203,-0.12662887573242188],"max":[0.11655712127685547,0.12530994415283203,0.12662506103515625]},{"bufferView":1,"componentType":5126,"count":564,"type":"VEC3"},{"bufferView":2,"componentType":5126,"count":564,"type":"VEC2"},{"bufferView":3,"componentType":5126,"count":564,"type":"VEC3"},{"bufferView":4,"componentType":5123,"count":564,"type":"SCALAR"}],"bufferViews":[{"buffer":0,"byteOffset":0,"byteLength":6768,"target":34962},{"buffer":0,"byteOffset":6768,"byteLength":6768,"target":34962},{"buffer":0,"byteOffset":13536,"byteLength":4512,"target":34962},{"buffer":0,"byteOffset":18048,"byteLength":6768,"target":34962},{"buffer":0,"byteOffset":24816,"byteLength":1128,"target":34963}],"buffers":[{"byteLength":25944,"uri":"data:application/octet-stream;base64,"}]}