{"asset":{"version":"2.0","generator":"utc-import-synty"},"scene":0,"scenes":[{"nodes":[0]}],"nodes":[{"name":"SM_Tree_Round_03","mesh":0}],"meshes":[{"name":"SM_Tree_Round_03","primitives":[{"attributes":{"POSITION":0,"NORMAL":1,"TEXCOORD_0":2,"COLOR_0":3},"indices":4,"material":0}]}],"materials":[{"name":"lambert2","pbrMetallicRoughness":{"baseColorFactor":[1,1,1,1],"metallicFactor":0,"roughnessFactor":0.86},"doubleSided":false}],"accessors":[{"bufferView":0,"componentType":5126,"count":1116,"type":"VEC3","min":[-0.8853133916854858,-0.12902188301086426,-0.9685096740722656],"max":[0.8919891119003296,3.471668004989624,0.7140407562255859]},{"bufferView":1,"componentType":5126,"count":1116,"type":"VEC3"},{"bufferView":2,"componentType":5126,"count":1116,"type":"VEC2"},{"bufferView":3,"componentType":5126,"count":1116,"type":"VEC3"},{"bufferView":4,"componentType":5123,"count":1116,"type":"SCALAR"}],"bufferViews":[{"buffer":0,"byteOffset":0,"byteLength":13392,"target":34962},{"buffer":0,"byteOffset":13392,"byteLength":13392,"target":34962},{"buffer":0,"byteOffset":26784,"byteLength":8928,"target":34962},{"buffer":0,"byteOffset":35712,"byteLength":13392,"target":34962},{"buffer":0,"byteOffset":49104,"byteLength":2232,"target":34963}],"buffers":[{"byteLength":51336,"uri":"data:application/octet-stream;base64,"}]}