{"asset":{"version":"2.0","generator":"utc-import-synty"},"scene":0,"scenes":[{"nodes":[0]}],"nodes":[{"name":"SM_Tree_PolyPine_01","mesh":0}],"meshes":[{"name":"SM_Tree_PolyPine_01","primitives":[{"attributes":{"POSITION":0,"NORMAL":1,"TEXCOORD_0":2,"COLOR_0":3},"indices":4,"material":0}]}],"materials":[{"name":"lambert2","pbrMetallicRoughness":{"baseColorFactor":[1,1,1,1],"metallicFactor":0,"roughnessFactor":0.86},"doubleSided":false}],"accessors":[{"bufferView":0,"componentType":5126,"count":1260,"type":"VEC3","min":[-1.2686233520507812,-0.15732097625732422,-1.232757568359375],"max":[1.2442245483398438,6.53399658203125,1.1247024536132812]},{"bufferView":1,"componentType":5126,"count":1260,"type":"VEC3"},{"bufferView":2,"componentType":5126,"count":1260,"type":"VEC2"},{"bufferView":3,"componentType":5126,"count":1260,"type":"VEC3"},{"bufferView":4,"componentType":5123,"count":1260,"type":"SCALAR"}],"bufferViews":[{"buffer":0,"byteOffset":0,"byteLength":15120,"target":34962},{"buffer":0,"byteOffset":15120,"byteLength":15120,"target":34962},{"buffer":0,"byteOffset":30240,"byteLength":10080,"target":34962},{"buffer":0,"byteOffset":40320,"byteLength":15120,"target":34962},{"buffer":0,"byteOffset":55440,"byteLength":2520,"target":34963}],"buffers":[{"byteLength":57960,"uri":"data:application/octet-stream;base64,"}]}