{"asset":{"version":"2.0","generator":"utc-import-synty"},"scene":0,"scenes":[{"nodes":[0]}],"nodes":[{"name":"SM_Plant_Grass_02","mesh":0}],"meshes":[{"name":"SM_Plant_Grass_02","primitives":[{"attributes":{"POSITION":0,"NORMAL":1,"TEXCOORD_0":2,"COLOR_0":3},"indices":4,"material":0}]}],"materials":[{"name":"lambert2","pbrMetallicRoughness":{"baseColorFactor":[1,1,1,1],"metallicFactor":0,"roughnessFactor":0.86},"doubleSided":false}],"accessors":[{"bufferView":0,"componentType":5126,"count":714,"type":"VEC3","min":[-0.5568296909332275,0,-0.6461920738220215],"max":[0.5568296909332275,1.1587152481079102,0.6461920738220215]},{"bufferView":1,"componentType":5126,"count":714,"type":"VEC3"},{"bufferView":2,"componentType":5126,"count":714,"type":"VEC2"},{"bufferView":3,"componentType":5126,"count":714,"type":"VEC3"},{"bufferView":4,"componentType":5123,"count":714,"type":"SCALAR"}],"bufferViews":[{"buffer":0,"byteOffset":0,"byteLength":8568,"target":34962},{"buffer":0,"byteOffset":8568,"byteLength":8568,"target":34962},{"buffer":0,"byteOffset":17136,"byteLength":5712,"target":34962},{"buffer":0,"byteOffset":22848,"byteLength":8568,"target":34962},{"buffer":0,"byteOffset":31416,"byteLength":1428,"target":34963}],"buffers":[{"byteLength":32844,"uri":"data:application/octet-stream;base64,"}]}