{"asset":{"version":"2.0","generator":"utc-import-synty"},"scene":0,"scenes":[{"nodes":[0]}],"nodes":[{"name":"SM_Tree_Vines_01","mesh":0}],"meshes":[{"name":"SM_Tree_Vines_01","primitives":[{"attributes":{"POSITION":0,"NORMAL":1,"TEXCOORD_0":2,"COLOR_0":3},"indices":4,"material":0}]}],"materials":[{"name":"Texture_0109","pbrMetallicRoughness":{"baseColorFactor":[1,1,1,1],"metallicFactor":0,"roughnessFactor":0.86},"doubleSided":false}],"accessors":[{"bufferView":0,"componentType":5126,"count":204,"type":"VEC3","min":[-0.7799414992332458,-1.6584821939468384,-0.02832084894180298],"max":[0.7799414992332458,0.00001202290877699852,0.028320834040641785]},{"bufferView":1,"componentType":5126,"count":204,"type":"VEC3"},{"bufferView":2,"componentType":5126,"count":204,"type":"VEC2"},{"bufferView":3,"componentType":5126,"count":204,"type":"VEC3"},{"bufferView":4,"componentType":5123,"count":204,"type":"SCALAR"}],"bufferViews":[{"buffer":0,"byteOffset":0,"byteLength":2448,"target":34962},{"buffer":0,"byteOffset":2448,"byteLength":2448,"target":34962},{"buffer":0,"byteOffset":4896,"byteLength":1632,"target":34962},{"buffer":0,"byteOffset":6528,"byteLength":2448,"target":34962},{"buffer":0,"byteOffset":8976,"byteLength":408,"target":34963}],"buffers":[{"byteLength":9384,"uri":"data:application/octet-stream;base64,"}]}