{"asset":{"version":"2.0","generator":"utc-import-synty"},"scene":0,"scenes":[{"nodes":[0]}],"nodes":[{"name":"SM_Tree_Pine_Small_02","mesh":0}],"meshes":[{"name":"SM_Tree_Pine_Small_02","primitives":[{"attributes":{"POSITION":0,"NORMAL":1,"TEXCOORD_0":2,"COLOR_0":3},"indices":4,"material":0},{"attributes":{"POSITION":5,"NORMAL":6,"TEXCOORD_0":7,"COLOR_0":8},"indices":9,"material":1}]}],"materials":[{"name":"Trunk","pbrMetallicRoughness":{"baseColorFactor":[1,1,1,1],"metallicFactor":0,"roughnessFactor":0.86},"doubleSided":false},{"name":"Leave","pbrMetallicRoughness":{"baseColorFactor":[1,1,1,1],"metallicFactor":0,"roughnessFactor":0.86},"doubleSided":true,"alphaMode":"MASK","alphaCutoff":0.4}],"accessors":[{"bufferView":0,"componentType":5126,"count":1032,"type":"VEC3","min":[-0.9125289916992188,0,-1.0208914279937744],"max":[1.0023345947265625,3.097256660461426,0.8940591216087341]},{"bufferView":1,"componentType":5126,"count":1032,"type":"VEC3"},{"bufferView":2,"componentType":5126,"count":1032,"type":"VEC2"},{"bufferView":3,"componentType":5126,"count":1032,"type":"VEC3"},{"bufferView":4,"componentType":5123,"count":240,"type":"SCALAR"},{"bufferView":5,"componentType":5126,"count":1032,"type":"VEC3","min":[-0.9125289916992188,0,-1.0208914279937744],"max":[1.0023345947265625,3.097256660461426,0.8940591216087341]},{"bufferView":6,"componentType":5126,"count":1032,"type":"VEC3"},{"bufferView":7,"componentType":5126,"count":1032,"type":"VEC2"},{"bufferView":8,"componentType":5126,"count":1032,"type":"VEC3"},{"bufferView":9,"componentType":5123,"count":792,"type":"SCALAR"}],"bufferViews":[{"buffer":0,"byteOffset":0,"byteLength":12384,"target":34962},{"buffer":0,"byteOffset":12384,"byteLength":12384,"target":34962},{"buffer":0,"byteOffset":24768,"byteLength":8256,"target":34962},{"buffer":0,"byteOffset":33024,"byteLength":12384,"target":34962},{"buffer":0,"byteOffset":45408,"byteLength":480,"target":34963},{"buffer":0,"byteOffset":45888,"byteLength":12384,"target":34962},{"buffer":0,"byteOffset":58272,"byteLength":12384,"target":34962},{"buffer":0,"byteOffset":70656,"byteLength":8256,"target":34962},{"buffer":0,"byteOffset":78912,"byteLength":12384,"target":34962},{"buffer":0,"byteOffset":91296,"byteLength":1584,"target":34963}],"buffers":[{"byteLength":92880,"uri":"data:application/octet-stream;base64,"}]}