{"asset":{"version":"2.0","generator":"utc-import-synty"},"scene":0,"scenes":[{"nodes":[0]}],"nodes":[{"name":"SM_Plant_02","mesh":0}],"meshes":[{"name":"SM_Plant_02","primitives":[{"attributes":{"POSITION":0,"NORMAL":1,"TEXCOORD_0":2,"COLOR_0":3},"indices":4,"material":0}]}],"materials":[{"name":"lambert2","pbrMetallicRoughness":{"baseColorFactor":[1,1,1,1],"metallicFactor":0,"roughnessFactor":0.86},"doubleSided":false}],"accessors":[{"bufferView":0,"componentType":5126,"count":840,"type":"VEC3","min":[-0.2621269226074219,0,-0.20429229736328125],"max":[0.2621269226074219,0.9023666381835938,0.20429229736328125]},{"bufferView":1,"componentType":5126,"count":840,"type":"VEC3"},{"bufferView":2,"componentType":5126,"count":840,"type":"VEC2"},{"bufferView":3,"componentType":5126,"count":840,"type":"VEC3"},{"bufferView":4,"componentType":5123,"count":840,"type":"SCALAR"}],"bufferViews":[{"buffer":0,"byteOffset":0,"byteLength":10080,"target":34962},{"buffer":0,"byteOffset":10080,"byteLength":10080,"target":34962},{"buffer":0,"byteOffset":20160,"byteLength":6720,"target":34962},{"buffer":0,"byteOffset":26880,"byteLength":10080,"target":34962},{"buffer":0,"byteOffset":36960,"byteLength":1680,"target":34963}],"buffers":[{"byteLength":38640,"uri":"data:application/octet-stream;base64,"}]}