{"asset":{"version":"2.0","generator":"utc-import-synty"},"scene":0,"scenes":[{"nodes":[0]}],"nodes":[{"name":"SM_Plant_01","mesh":0}],"meshes":[{"name":"SM_Plant_01","primitives":[{"attributes":{"POSITION":0,"NORMAL":1,"TEXCOORD_0":2,"COLOR_0":3},"indices":4,"material":0}]}],"materials":[{"name":"lambert2","pbrMetallicRoughness":{"baseColorFactor":[1,1,1,1],"metallicFactor":0,"roughnessFactor":0.86},"doubleSided":false}],"accessors":[{"bufferView":0,"componentType":5126,"count":1248,"type":"VEC3","min":[-0.6859597563743591,0,-0.6417798399925232],"max":[0.6859597563743591,0.4789763391017914,0.7267912030220032]},{"bufferView":1,"componentType":5126,"count":1248,"type":"VEC3"},{"bufferView":2,"componentType":5126,"count":1248,"type":"VEC2"},{"bufferView":3,"componentType":5126,"count":1248,"type":"VEC3"},{"bufferView":4,"componentType":5123,"count":1248,"type":"SCALAR"}],"bufferViews":[{"buffer":0,"byteOffset":0,"byteLength":14976,"target":34962},{"buffer":0,"byteOffset":14976,"byteLength":14976,"target":34962},{"buffer":0,"byteOffset":29952,"byteLength":9984,"target":34962},{"buffer":0,"byteOffset":39936,"byteLength":14976,"target":34962},{"buffer":0,"byteOffset":54912,"byteLength":2496,"target":34963}],"buffers":[{"byteLength":57408,"uri":"data:application/octet-stream;base64,"}]}