{"asset":{"version":"2.0","generator":"utc-import-synty"},"scene":0,"scenes":[{"nodes":[0]}],"nodes":[{"name":"SM_Tree_Pine_Small_01","mesh":0}],"meshes":[{"name":"SM_Tree_Pine_Small_01","primitives":[{"attributes":{"POSITION":0,"NORMAL":1,"TEXCOORD_0":2,"COLOR_0":3},"indices":4,"material":0},{"attributes":{"POSITION":5,"NORMAL":6,"TEXCOORD_0":7,"COLOR_0":8},"indices":9,"material":1}]}],"materials":[{"name":"Trunk","pbrMetallicRoughness":{"baseColorFactor":[1,1,1,1],"metallicFactor":0,"roughnessFactor":0.86},"doubleSided":false},{"name":"Leave","pbrMetallicRoughness":{"baseColorFactor":[1,1,1,1],"metallicFactor":0,"roughnessFactor":0.86},"doubleSided":true,"alphaMode":"MASK","alphaCutoff":0.4}],"accessors":[{"bufferView":0,"componentType":5126,"count":1212,"type":"VEC3","min":[-1.0097732543945312,0,-1.0208914279937744],"max":[1.0023345947265625,3.4821062088012695,0.9422286748886108]},{"bufferView":1,"componentType":5126,"count":1212,"type":"VEC3"},{"bufferView":2,"componentType":5126,"count":1212,"type":"VEC2"},{"bufferView":3,"componentType":5126,"count":1212,"type":"VEC3"},{"bufferView":4,"componentType":5123,"count":240,"type":"SCALAR"},{"bufferView":5,"componentType":5126,"count":1212,"type":"VEC3","min":[-1.0097732543945312,0,-1.0208914279937744],"max":[1.0023345947265625,3.4821062088012695,0.9422286748886108]},{"bufferView":6,"componentType":5126,"count":1212,"type":"VEC3"},{"bufferView":7,"componentType":5126,"count":1212,"type":"VEC2"},{"bufferView":8,"componentType":5126,"count":1212,"type":"VEC3"},{"bufferView":9,"componentType":5123,"count":972,"type":"SCALAR"}],"bufferViews":[{"buffer":0,"byteOffset":0,"byteLength":14544,"target":34962},{"buffer":0,"byteOffset":14544,"byteLength":14544,"target":34962},{"buffer":0,"byteOffset":29088,"byteLength":9696,"target":34962},{"buffer":0,"byteOffset":38784,"byteLength":14544,"target":34962},{"buffer":0,"byteOffset":53328,"byteLength":480,"target":34963},{"buffer":0,"byteOffset":53808,"byteLength":14544,"target":34962},{"buffer":0,"byteOffset":68352,"byteLength":14544,"target":34962},{"buffer":0,"byteOffset":82896,"byteLength":9696,"target":34962},{"buffer":0,"byteOffset":92592,"byteLength":14544,"target":34962},{"buffer":0,"byteOffset":107136,"byteLength":1944,"target":34963}],"buffers":[{"byteLength":109080,"uri":"data:application/octet-stream;base64,"}]}