{"asset":{"version":"2.0","generator":"Under the Canopy landscape workshop"},"scene":0,"scenes":[{"nodes":[0]}],"nodes":[{"mesh":0}],"meshes":[{"primitives":[{"attributes":{"POSITION":0,"NORMAL":1},"material":0}]}],"materials":[{"name":"Stone","pbrMetallicRoughness":{"baseColorFactor":[0.34191442489801843,0.4019777798219466,0.37626212298046485,1],"metallicFactor":0,"roughnessFactor":0.95}}],"buffers":[{"byteLength":5760,"uri":"data:application/octet-stream;base64,"}],"bufferViews":[{"buffer":0,"byteOffset":0,"byteLength":2880},{"buffer":0,"byteOffset":2880,"byteLength":2880}],"accessors":[{"bufferView":0,"componentType":5126,"count":240,"type":"VEC3","min":[-2.325453758239746,-0.07999999821186066,-1.5220654010772705],"max":[1.922869086265564,2.635455369949341,1.6271623373031616]},{"bufferView":1,"componentType":5126,"count":240,"type":"VEC3","min":[-0.8850570321083069,-0.9495036005973816,-0.9930363297462463],"max":[0.984584629535675,0.9969716668128967,0.9740686416625977]}]}